<!DOCTYPE svg PUBLIC "-//W3C//DTD SVG 1.1//EN" "http://www.w3.org/Graphics/SVG/1.1/DTD/svg11.dtd">
<!-- Uploaded to: SVG Repo, www.svgrepo.com, Transformed by: SVG Repo Mixer Tools -->
<svg height="800px" width="800px" version="1.1" id="Layer_1" xmlns="http://www.w3.org/2000/svg" xmlns:xlink="http://www.w3.org/1999/xlink" viewBox="0 0 502 502" xml:space="preserve" fill="#12af15" transform="rotate(-45)" stroke="#12af15">
<g id="SVGRepo_bgCarrier" stroke-width="0"/>
<g id="SVGRepo_tracerCarrier" stroke-linecap="round" stroke-linejoin="round"/>
<g id="SVGRepo_iconCarrier"> <g> <g> <path style="fill:#D7E6D8;" d="M405.736,273.381c0,85.459-69.278,154.736-154.736,154.736S96.264,358.84,96.264,273.381 S251,10,251,10S405.736,187.923,405.736,273.381z"/> <path style="fill:#24630d;" d="M251,438.117c-90.836,0-164.736-73.9-164.736-164.736c0-88.185,150.772-262.563,157.19-269.943 C245.354,1.254,248.105,0,251,0s5.646,1.254,7.546,3.438c6.418,7.38,157.19,181.759,157.19,269.943 C415.736,364.217,341.836,438.117,251,438.117z M251.001,25.453c-13.103,15.64-41.338,50.215-69.278,90.07 c-49.366,70.418-75.459,125.004-75.459,157.857c0,79.808,64.929,144.736,144.736,144.736s144.736-64.929,144.736-144.736 c0-32.877-26.127-87.511-75.556-157.995C292.254,75.563,264.083,41.068,251.001,25.453z"/> </g> <g> <path style="fill:#24630d;" d="M251,502c-5.522,0-10-4.478-10-10v-33.843c0-5.522,4.478-10,10-10s10,4.478,10,10V492 C261,497.522,256.522,502,251,502z"/> </g> <g> <g> <path style="fill:#7ad133;" d="M251,389c50.326,0,93.269-31.579,110.115-76h-220.23C157.731,357.421,200.674,389,251,389z"/> <path style="fill:#24630d;" d="M251,399c-26.438,0-51.806-8.009-73.363-23.161c-21.064-14.806-37.007-35.309-46.103-59.293 c-1.165-3.073-0.746-6.522,1.121-9.227c1.866-2.705,4.943-4.319,8.229-4.319h220.23c3.286,0,6.363,1.614,8.229,4.319 c1.867,2.704,2.286,6.153,1.121,9.227c-9.096,23.984-25.038,44.487-46.103,59.293C302.806,390.991,277.438,399,251,399z M156.493,323c18.711,34.005,55.035,56,94.507,56s75.796-21.995,94.507-56H156.493z"/> </g> <g> <path style="fill:#7ad133;" d="M133.264,271.264c0,1.25,0.026,2.495,0.065,3.736h235.343c0.039-1.241,0.065-2.486,0.065-3.736 c0-19.581-10.683-45.542-25.605-72.264H158.869C143.946,225.722,133.264,251.683,133.264,271.264z"/> <path style="fill:#24630d;" d="M368.672,285H133.328c-5.403,0-9.829-4.292-9.995-9.693c-0.041-1.343-0.069-2.69-0.069-4.043 c0-19.524,8.791-44.758,26.875-77.14c1.767-3.164,5.106-5.124,8.73-5.124h184.262c3.624,0,6.964,1.96,8.73,5.124 c18.084,32.382,26.875,57.615,26.875,77.14c0,1.353-0.028,2.7-0.069,4.043C378.501,280.708,374.075,285,368.672,285z M143.664,265h214.672c-1.716-14.22-8.921-33.338-21.125-56H164.789C152.585,231.662,145.38,250.78,143.664,265z"/> </g> <g> <path style="fill:#7ad133;" d="M264.504,87h-27.007c-13.815,16.904-36.085,45.234-56.51,76h140.028 C300.589,132.234,278.319,103.904,264.504,87z"/> <path style="fill:#24630d;" d="M321.014,173H180.986c-3.685,0-7.07-2.026-8.813-5.272c-1.741-3.247-1.557-7.188,0.481-10.259 c20.262-30.52,42.233-58.607,57.098-76.797c1.899-2.324,4.742-3.672,7.743-3.672h27.008c3.001,0,5.844,1.348,7.743,3.672 c14.864,18.189,36.836,46.277,57.098,76.797c2.038,3.07,2.223,7.012,0.481,10.259C328.084,170.974,324.698,173,321.014,173z M199.912,153h102.176c-15.258-21.806-30.63-41.542-42.34-56h-17.496C230.542,111.458,215.17,131.194,199.912,153z"/> </g> </g> <g> <path style="fill:#24630d;" d="M322,239h-21c-5.522,0-10-4.478-10-10s4.478-10,10-10h21c5.522,0,10,4.478,10,10 S327.522,239,322,239z"/> </g> <g> <path style="fill:#24630d;" d="M266,239h-87c-5.522,0-10-4.478-10-10s4.478-10,10-10h87c5.522,0,10,4.478,10,10 S271.522,239,266,239z"/> </g> </g> </g>
</svg>